<svg xmlns="http://www.w3.org/2000/svg" viewBox="0 0 80 80"><path d="M 40 11 C 23.996094 11 11 23.996094 11 40 C 11 56.003906 23.996094 69 40 69 C 56.003906 69 69 56.003906 69 40 C 69 23.996094 56.003906 11 40 11 Z M 40 13 C 54.921875 13 67 25.078125 67 40 C 67 54.921875 54.921875 67 40 67 C 25.078125 67 13 54.921875 13 40 C 13 25.078125 25.078125 13 40 13 Z M 40 16 C 39.449219 16 39 16.449219 39 17 C 39 17.550781 39.449219 18 40 18 C 40.550781 18 41 17.550781 41 17 C 41 16.449219 40.550781 16 40 16 Z M 35.515625 16.441406 C 35.449219 16.441406 35.382813 16.449219 35.316406 16.460938 C 34.777344 16.570313 34.425781 17.09375 34.53125 17.636719 C 34.640625 18.179688 35.167969 18.53125 35.707031 18.421875 C 36.25 18.3125 36.601563 17.789063 36.496094 17.246094 C 36.402344 16.78125 35.992188 16.445313 35.515625 16.441406 Z M 44.515625 16.441406 C 44.027344 16.429688 43.601563 16.769531 43.507813 17.246094 C 43.398438 17.789063 43.75 18.3125 44.292969 18.421875 C 44.835938 18.53125 45.359375 18.179688 45.46875 17.636719 C 45.578125 17.09375 45.226563 16.570313 44.683594 16.460938 C 44.628906 16.449219 44.570313 16.441406 44.515625 16.441406 Z M 48.824219 17.75 C 48.410156 17.738281 48.035156 17.984375 47.875 18.363281 C 47.777344 18.609375 47.777344 18.886719 47.878906 19.132813 C 47.980469 19.375 48.175781 19.570313 48.421875 19.671875 C 48.929688 19.882813 49.511719 19.640625 49.722656 19.128906 C 49.9375 18.621094 49.695313 18.035156 49.183594 17.824219 C 49.070313 17.777344 48.949219 17.75 48.824219 17.75 Z M 31.203125 17.75 C 31.070313 17.75 30.941406 17.773438 30.816406 17.828125 C 30.304688 18.039063 30.0625 18.621094 30.277344 19.132813 C 30.488281 19.640625 31.070313 19.882813 31.578125 19.671875 C 31.824219 19.574219 32.019531 19.378906 32.121094 19.132813 C 32.222656 18.886719 32.222656 18.613281 32.125 18.367188 C 31.96875 17.996094 31.605469 17.753906 31.203125 17.75 Z M 12.167969 18.785156 C 7.675781 24.671875 5 32.027344 5 40 C 5 47.972656 7.675781 55.328125 12.167969 61.214844 L 13.753906 60 C 9.519531 54.449219 7 47.527344 7 40 C 7 32.472656 9.519531 25.550781 13.753906 20 Z M 67.832031 18.785156 L 66.246094 20 C 70.480469 25.550781 73 32.472656 73 40 C 73 47.527344 70.480469 54.449219 66.246094 60 L 67.832031 61.214844 C 72.324219 55.328125 75 47.972656 75 40 C 75 32.027344 72.324219 24.671875 67.832031 18.785156 Z M 27.234375 19.875 C 27.03125 19.871094 26.832031 19.929688 26.667969 20.042969 C 26.207031 20.351563 26.082031 20.96875 26.390625 21.429688 C 26.695313 21.890625 27.316406 22.011719 27.777344 21.707031 C 28 21.558594 28.152344 21.332031 28.203125 21.070313 C 28.253906 20.808594 28.199219 20.539063 28.050781 20.316406 C 27.871094 20.042969 27.5625 19.878906 27.234375 19.875 Z M 52.796875 19.875 C 52.457031 19.867188 52.136719 20.035156 51.949219 20.316406 C 51.640625 20.777344 51.765625 21.398438 52.222656 21.703125 C 52.683594 22.011719 53.300781 21.886719 53.609375 21.429688 C 53.917969 20.96875 53.792969 20.351563 53.332031 20.042969 C 53.175781 19.9375 52.988281 19.878906 52.796875 19.875 Z M 23.75 22.734375 C 23.480469 22.730469 23.21875 22.835938 23.03125 23.03125 C 22.640625 23.417969 22.640625 24.054688 23.03125 24.441406 C 23.417969 24.832031 24.054688 24.832031 24.441406 24.441406 C 24.832031 24.054688 24.832031 23.417969 24.441406 23.03125 C 24.257813 22.84375 24.011719 22.742188 23.75 22.734375 Z M 56.277344 22.734375 C 56.007813 22.734375 55.746094 22.839844 55.558594 23.03125 C 55.167969 23.417969 55.167969 24.054688 55.558594 24.441406 C 55.945313 24.832031 56.582031 24.832031 56.96875 24.441406 C 57.359375 24.054688 57.359375 23.417969 56.96875 23.03125 C 56.785156 22.84375 56.539063 22.738281 56.277344 22.734375 Z M 35.9375 25 L 37.058594 44 L 42.941406 44 L 43 43.058594 L 44.0625 25 Z M 59.136719 26.21875 C 58.933594 26.21875 58.734375 26.277344 58.566406 26.390625 C 58.109375 26.695313 57.984375 27.316406 58.292969 27.777344 C 58.601563 28.234375 59.21875 28.359375 59.679688 28.050781 C 60.136719 27.742188 60.261719 27.125 59.953125 26.664063 C 59.773438 26.390625 59.464844 26.222656 59.136719 26.21875 Z M 20.894531 26.21875 C 20.554688 26.214844 20.234375 26.382813 20.046875 26.667969 C 19.738281 27.125 19.863281 27.746094 20.324219 28.050781 C 20.78125 28.359375 21.402344 28.234375 21.707031 27.777344 C 21.855469 27.558594 21.910156 27.285156 21.859375 27.027344 C 21.808594 26.765625 21.65625 26.535156 21.433594 26.390625 C 21.273438 26.28125 21.089844 26.222656 20.894531 26.21875 Z M 38.0625 27 L 41.9375 27 L 41.058594 42 L 38.941406 42 Z M 18.769531 30.199219 C 18.359375 30.1875 17.984375 30.433594 17.828125 30.8125 C 17.613281 31.324219 17.855469 31.910156 18.367188 32.121094 C 18.878906 32.332031 19.460938 32.089844 19.671875 31.578125 C 19.886719 31.070313 19.644531 30.484375 19.132813 30.273438 C 19.019531 30.226563 18.894531 30.199219 18.769531 30.199219 Z M 61.253906 30.199219 C 61.121094 30.195313 60.992188 30.222656 60.867188 30.273438 C 60.355469 30.484375 60.113281 31.070313 60.328125 31.578125 C 60.539063 32.089844 61.121094 32.332031 61.632813 32.121094 C 62.144531 31.910156 62.386719 31.324219 62.171875 30.8125 C 62.019531 30.441406 61.65625 30.199219 61.253906 30.199219 Z M 17.46875 34.515625 C 16.980469 34.5 16.554688 34.839844 16.460938 35.316406 C 16.351563 35.859375 16.703125 36.386719 17.246094 36.496094 C 17.789063 36.601563 18.3125 36.25 18.421875 35.707031 C 18.472656 35.449219 18.421875 35.179688 18.273438 34.957031 C 18.125 34.738281 17.898438 34.582031 17.636719 34.53125 C 17.582031 34.519531 17.523438 34.515625 17.46875 34.515625 Z M 62.5625 34.515625 C 62.496094 34.511719 62.429688 34.519531 62.363281 34.53125 C 62.105469 34.582031 61.875 34.734375 61.726563 34.957031 C 61.582031 35.175781 61.527344 35.445313 61.578125 35.707031 C 61.628906 35.96875 61.78125 36.195313 62.003906 36.34375 C 62.222656 36.492188 62.492188 36.546875 62.753906 36.496094 C 63.015625 36.441406 63.242188 36.289063 63.390625 36.070313 C 63.539063 35.847656 63.59375 35.578125 63.542969 35.316406 C 63.449219 34.851563 63.039063 34.515625 62.5625 34.515625 Z M 17 39 C 16.449219 39 16 39.449219 16 40 C 16 40.550781 16.449219 41 17 41 C 17.550781 41 18 40.550781 18 40 C 18 39.449219 17.550781 39 17 39 Z M 63 39 C 62.449219 39 62 39.449219 62 40 C 62 40.550781 62.449219 41 63 41 C 63.550781 41 64 40.550781 64 40 C 64 39.449219 63.550781 39 63 39 Z M 62.582031 43.484375 C 62.097656 43.472656 61.671875 43.8125 61.578125 44.292969 C 61.46875 44.832031 61.820313 45.359375 62.363281 45.46875 C 62.90625 45.574219 63.429688 45.222656 63.539063 44.683594 C 63.648438 44.140625 63.296875 43.613281 62.753906 43.503906 C 62.699219 43.496094 62.640625 43.488281 62.582031 43.484375 Z M 17.449219 43.488281 C 17.378906 43.488281 17.3125 43.492188 17.25 43.503906 C 16.988281 43.558594 16.757813 43.710938 16.609375 43.929688 C 16.464844 44.152344 16.410156 44.421875 16.460938 44.683594 C 16.511719 44.941406 16.664063 45.171875 16.886719 45.320313 C 17.105469 45.464844 17.375 45.519531 17.636719 45.46875 C 17.898438 45.417969 18.125 45.265625 18.273438 45.042969 C 18.421875 44.824219 18.476563 44.554688 18.421875 44.292969 C 18.332031 43.828125 17.921875 43.492188 17.449219 43.488281 Z M 40 47 C 37.800781 47 36 48.800781 36 51 C 36 53.199219 37.800781 55 40 55 C 42.199219 55 44 53.199219 44 51 C 44 48.800781 42.199219 47 40 47 Z M 18.761719 47.800781 C 18.625 47.800781 18.492188 47.824219 18.371094 47.875 C 17.859375 48.089844 17.617188 48.671875 17.828125 49.183594 C 18.039063 49.695313 18.625 49.9375 19.136719 49.722656 C 19.644531 49.511719 19.886719 48.929688 19.675781 48.417969 C 19.523438 48.046875 19.160156 47.804688 18.761719 47.800781 Z M 61.269531 47.800781 C 60.859375 47.792969 60.484375 48.035156 60.328125 48.417969 C 60.113281 48.929688 60.355469 49.511719 60.867188 49.722656 C 61.113281 49.824219 61.386719 49.824219 61.632813 49.722656 C 61.878906 49.621094 62.074219 49.425781 62.171875 49.183594 C 62.386719 48.671875 62.144531 48.085938 61.632813 47.875 C 61.519531 47.828125 61.394531 47.804688 61.269531 47.800781 Z M 40 49 C 41.117188 49 42 49.882813 42 51 C 42 52.117188 41.117188 53 40 53 C 38.882813 53 38 52.117188 38 51 C 38 49.882813 38.882813 49 40 49 Z M 59.140625 51.777344 C 58.800781 51.769531 58.480469 51.9375 58.292969 52.21875 C 57.984375 52.679688 58.109375 53.300781 58.566406 53.609375 C 58.789063 53.753906 59.058594 53.808594 59.320313 53.757813 C 59.582031 53.703125 59.808594 53.550781 59.957031 53.328125 C 60.261719 52.871094 60.140625 52.25 59.679688 51.941406 C 59.519531 51.835938 59.335938 51.777344 59.140625 51.777344 Z M 20.890625 51.777344 C 20.6875 51.773438 20.488281 51.832031 20.324219 51.945313 C 19.863281 52.253906 19.738281 52.871094 20.046875 53.332031 C 20.351563 53.792969 20.972656 53.914063 21.433594 53.609375 C 21.65625 53.460938 21.808594 53.234375 21.859375 52.972656 C 21.910156 52.710938 21.855469 52.441406 21.707031 52.21875 C 21.527344 51.945313 21.21875 51.78125 20.890625 51.777344 Z M 23.75 55.261719 C 23.480469 55.257813 23.21875 55.363281 23.03125 55.554688 C 22.640625 55.945313 22.640625 56.578125 23.03125 56.96875 C 23.417969 57.359375 24.054688 57.359375 24.441406 56.96875 C 24.832031 56.578125 24.832031 55.945313 24.441406 55.554688 C 24.257813 55.371094 24.011719 55.265625 23.75 55.261719 Z M 56.277344 55.265625 C 56.007813 55.257813 55.746094 55.363281 55.554688 55.558594 C 55.164063 55.945313 55.164063 56.582031 55.554688 56.96875 C 55.945313 57.359375 56.578125 57.359375 56.96875 56.96875 C 57.359375 56.582031 57.359375 55.945313 56.96875 55.558594 C 56.785156 55.371094 56.539063 55.269531 56.277344 55.265625 Z M 52.792969 58.121094 C 52.589844 58.121094 52.390625 58.179688 52.222656 58.292969 C 51.765625 58.597656 51.640625 59.21875 51.949219 59.675781 C 52.257813 60.136719 52.875 60.261719 53.335938 59.953125 C 53.792969 59.644531 53.917969 59.027344 53.609375 58.566406 C 53.429688 58.292969 53.121094 58.125 52.792969 58.121094 Z M 27.242188 58.125 C 26.902344 58.117188 26.582031 58.285156 26.390625 58.566406 C 26.085938 59.027344 26.210938 59.644531 26.667969 59.953125 C 27.128906 60.261719 27.746094 60.136719 28.054688 59.675781 C 28.363281 59.21875 28.238281 58.597656 27.78125 58.292969 C 27.621094 58.183594 27.433594 58.125 27.242188 58.125 Z M 31.21875 60.25 C 30.808594 60.238281 30.433594 60.484375 30.277344 60.863281 C 30.0625 61.375 30.304688 61.960938 30.816406 62.171875 C 31.328125 62.382813 31.910156 62.140625 32.125 61.628906 C 32.335938 61.121094 32.09375 60.535156 31.582031 60.324219 C 31.46875 60.277344 31.34375 60.25 31.21875 60.25 Z M 48.8125 60.25 C 48.675781 60.246094 48.542969 60.273438 48.421875 60.324219 C 47.910156 60.535156 47.667969 61.121094 47.878906 61.628906 C 48.089844 62.140625 48.675781 62.382813 49.1875 62.171875 C 49.695313 61.960938 49.9375 61.375 49.726563 60.863281 C 49.574219 60.496094 49.210938 60.25 48.8125 60.25 Z M 35.542969 61.558594 C 35.054688 61.546875 34.628906 61.886719 34.53125 62.363281 C 34.480469 62.625 34.535156 62.894531 34.683594 63.113281 C 34.832031 63.335938 35.058594 63.488281 35.320313 63.539063 C 35.863281 63.648438 36.386719 63.296875 36.496094 62.753906 C 36.546875 62.492188 36.492188 62.222656 36.347656 62.003906 C 36.199219 61.78125 35.96875 61.628906 35.707031 61.578125 C 35.652344 61.566406 35.597656 61.558594 35.542969 61.558594 Z M 44.492188 61.558594 C 44.425781 61.558594 44.359375 61.566406 44.292969 61.578125 C 43.75 61.6875 43.398438 62.210938 43.507813 62.753906 C 43.617188 63.296875 44.140625 63.648438 44.683594 63.539063 C 45.226563 63.429688 45.578125 62.90625 45.46875 62.363281 C 45.375 61.898438 44.96875 61.5625 44.492188 61.558594 Z M 40 62 C 39.449219 62 39 62.449219 39 63 C 39 63.550781 39.449219 64 40 64 C 40.550781 64 41 63.550781 41 63 C 41 62.449219 40.550781 62 40 62 Z"></path></svg>